<svg xmlns="http://www.w3.org/2000/svg" version="1.1" xmlns:xlink="http://www.w3.org/1999/xlink" xmlns:svgjs="http://svgjs.dev/svgjs" width="1440" height="560" preserveAspectRatio="none" viewBox="0 0 1440 560"><g mask="url(&quot;#SvgjsMask1112&quot;)" fill="none"><rect width="1440" height="560" x="0" y="0" fill="url(&quot;#SvgjsLinearGradient1113&quot;)"></rect><path d="M1166 59L1577 470" stroke-width="10" stroke="url(&quot;#SvgjsLinearGradient1114&quot;)" stroke-linecap="round" class="TopLeft"></path><path d="M1431 557L1636 762" stroke-width="10" stroke="url(&quot;#SvgjsLinearGradient1115&quot;)" stroke-linecap="round" class="BottomRight"></path><path d="M89 36L-65 -118" stroke-width="6" stroke="url(&quot;#SvgjsLinearGradient1114&quot;)" stroke-linecap="round" class="TopLeft"></path><path d="M1009 552L1360 903" stroke-width="8" stroke="url(&quot;#SvgjsLinearGradient1116&quot;)" stroke-linecap="round" class="BottomRight"></path><path d="M1417 280L1204 67" stroke-width="8" stroke="url(&quot;#SvgjsLinearGradient1115&quot;)" stroke-linecap="round" class="BottomRight"></path><path d="M1113 326L879 92" stroke-width="6" stroke="url(&quot;#SvgjsLinearGradient1117&quot;)" stroke-linecap="round" class="TopLeft"></path><path d="M749 55L337 -357" stroke-width="6" stroke="url(&quot;#SvgjsLinearGradient1116&quot;)" stroke-linecap="round" class="BottomRight"></path><path d="M252 406L544 698" stroke-width="8" stroke="url(&quot;#SvgjsLinearGradient1115&quot;)" stroke-linecap="round" class="BottomRight"></path><path d="M974 547L656 229" stroke-width="8" stroke="url(&quot;#SvgjsLinearGradient1116&quot;)" stroke-linecap="round" class="BottomRight"></path><path d="M658 79L870 291" stroke-width="8" stroke="url(&quot;#SvgjsLinearGradient1115&quot;)" stroke-linecap="round" class="BottomRight"></path><path d="M533 456L245 168" stroke-width="6" stroke="url(&quot;#SvgjsLinearGradient1116&quot;)" stroke-linecap="round" class="BottomRight"></path><path d="M1036 558L800 322" stroke-width="10" stroke="url(&quot;#SvgjsLinearGradient1115&quot;)" stroke-linecap="round" class="BottomRight"></path><path d="M1147 20L963 -164" stroke-width="10" stroke="url(&quot;#SvgjsLinearGradient1114&quot;)" stroke-linecap="round" class="TopLeft"></path><path d="M518 519L281 282" stroke-width="6" stroke="url(&quot;#SvgjsLinearGradient1114&quot;)" stroke-linecap="round" class="TopLeft"></path><path d="M292 531L476 715" stroke-width="8" stroke="url(&quot;#SvgjsLinearGradient1117&quot;)" stroke-linecap="round" class="TopLeft"></path><path d="M1236 263L1382 409" stroke-width="6" stroke="url(&quot;#SvgjsLinearGradient1116&quot;)" stroke-linecap="round" class="BottomRight"></path><path d="M182 123L-192 -251" stroke-width="10" stroke="url(&quot;#SvgjsLinearGradient1114&quot;)" stroke-linecap="round" class="TopLeft"></path><path d="M815 73L455 -287" stroke-width="10" stroke="url(&quot;#SvgjsLinearGradient1117&quot;)" stroke-linecap="round" class="TopLeft"></path><path d="M351 21L750 420" stroke-width="6" stroke="url(&quot;#SvgjsLinearGradient1116&quot;)" stroke-linecap="round" class="BottomRight"></path><path d="M1439 258L1766 585" stroke-width="6" stroke="url(&quot;#SvgjsLinearGradient1115&quot;)" stroke-linecap="round" class="BottomRight"></path><path d="M157 188L-83 -52" stroke-width="10" stroke="url(&quot;#SvgjsLinearGradient1114&quot;)" stroke-linecap="round" class="TopLeft"></path><path d="M1211 481L1434 704" stroke-width="6" stroke="url(&quot;#SvgjsLinearGradient1114&quot;)" stroke-linecap="round" class="TopLeft"></path><path d="M1402 199L1032 -171" stroke-width="6" stroke="url(&quot;#SvgjsLinearGradient1117&quot;)" stroke-linecap="round" class="TopLeft"></path><path d="M878 224L507 -147" stroke-width="6" stroke="url(&quot;#SvgjsLinearGradient1114&quot;)" stroke-linecap="round" class="TopLeft"></path><path d="M1197 127L956 -114" stroke-width="8" stroke="url(&quot;#SvgjsLinearGradient1114&quot;)" stroke-linecap="round" class="TopLeft"></path><path d="M1238 369L1381 512" stroke-width="6" stroke="url(&quot;#SvgjsLinearGradient1117&quot;)" stroke-linecap="round" class="TopLeft"></path><path d="M9 94L-268 -183" stroke-width="6" stroke="url(&quot;#SvgjsLinearGradient1116&quot;)" stroke-linecap="round" class="BottomRight"></path><path d="M212 241L401 430" stroke-width="8" stroke="url(&quot;#SvgjsLinearGradient1116&quot;)" stroke-linecap="round" class="BottomRight"></path><path d="M1256 371L869 -16" stroke-width="6" stroke="url(&quot;#SvgjsLinearGradient1115&quot;)" stroke-linecap="round" class="BottomRight"></path><path d="M283 141L427 285" stroke-width="6" stroke="url(&quot;#SvgjsLinearGradient1114&quot;)" stroke-linecap="round" class="TopLeft"></path><path d="M1183 536L1007 360" stroke-width="8" stroke="url(&quot;#SvgjsLinearGradient1114&quot;)" stroke-linecap="round" class="TopLeft"></path><path d="M479 309L741 571" stroke-width="10" stroke="url(&quot;#SvgjsLinearGradient1117&quot;)" stroke-linecap="round" class="TopLeft"></path><path d="M1290 222L1149 81" stroke-width="6" stroke="url(&quot;#SvgjsLinearGradient1114&quot;)" stroke-linecap="round" class="TopLeft"></path><path d="M1091 97L1473 479" stroke-width="6" stroke="url(&quot;#SvgjsLinearGradient1114&quot;)" stroke-linecap="round" class="TopLeft"></path><path d="M256 469L-120 93" stroke-width="8" stroke="url(&quot;#SvgjsLinearGradient1117&quot;)" stroke-linecap="round" class="TopLeft"></path><path d="M615 46L847 278" stroke-width="6" stroke="url(&quot;#SvgjsLinearGradient1114&quot;)" stroke-linecap="round" class="TopLeft"></path><path d="M518 346L894 722" stroke-width="10" stroke="url(&quot;#SvgjsLinearGradient1117&quot;)" stroke-linecap="round" class="TopLeft"></path><path d="M1087 345L1426 684" stroke-width="10" stroke="url(&quot;#SvgjsLinearGradient1114&quot;)" stroke-linecap="round" class="TopLeft"></path><path d="M136 258L-19 103" stroke-width="8" stroke="url(&quot;#SvgjsLinearGradient1117&quot;)" stroke-linecap="round" class="TopLeft"></path></g><defs><mask id="SvgjsMask1112"><rect width="1440" height="560" fill="#ffffff"></rect></mask><linearGradient x1="15.28%" y1="-39.29%" x2="84.72%" y2="139.29%" gradientUnits="userSpaceOnUse" id="SvgjsLinearGradient1113"><stop stop-color="#0e2a47" offset="0"></stop><stop stop-color="rgba(230, 228, 196, 1)" offset="1"></stop></linearGradient><linearGradient x1="100%" y1="100%" x2="0%" y2="0%" id="SvgjsLinearGradient1114"><stop stop-color="rgba(28, 83, 142, 0)" offset="0"></stop><stop stop-color="#1c538e" offset="1"></stop></linearGradient><linearGradient x1="0%" y1="0%" x2="100%" y2="100%" id="SvgjsLinearGradient1115"><stop stop-color="rgba(28, 83, 142, 0)" offset="0"></stop><stop stop-color="#1c538e" offset="1"></stop></linearGradient><linearGradient x1="0%" y1="0%" x2="100%" y2="100%" id="SvgjsLinearGradient1116"><stop stop-color="rgba(124, 127, 162, 0)" offset="0"></stop><stop stop-color="rgba(124, 127, 162, 1)" offset="1"></stop></linearGradient><linearGradient x1="100%" y1="100%" x2="0%" y2="0%" id="SvgjsLinearGradient1117"><stop stop-color="rgba(124, 127, 162, 0)" offset="0"></stop><stop stop-color="rgba(124, 127, 162, 1)" offset="1"></stop></linearGradient></defs></svg>